<svg xmlns="http://www.w3.org/2000/svg" width="840" height="552" viewBox="0 0 840 552"><rect width="100%" height="100%" fill="#15191c"/><rect x="240" y="384" width="72" height="72" fill="#59656a" stroke="#d7e8df" stroke-width="2"/><text x="276.0" y="420.0" text-anchor="middle" dominant-baseline="middle" fill="white" font-family="sans-serif" font-size="9">Storage</text><rect x="312" y="384" width="72" height="72" fill="#59656a" stroke="#d7e8df" stroke-width="2"/><text x="348.0" y="420.0" text-anchor="middle" dominant-baseline="middle" fill="white" font-family="sans-serif" font-size="9">Storage</text><rect x="384" y="384" width="72" height="72" fill="#59656a" stroke="#d7e8df" stroke-width="2"/><text x="420.0" y="420.0" text-anchor="middle" dominant-baseline="middle" fill="white" font-family="sans-serif" font-size="9">Service</text><rect x="168" y="312" width="72" height="72" fill="#59656a" stroke="#d7e8df" stroke-width="2"/><text x="204.0" y="348.0" text-anchor="middle" dominant-baseline="middle" fill="white" font-family="sans-serif" font-size="9">Atrium</text><rect x="240" y="312" width="72" height="72" fill="#59656a" stroke="#d7e8df" stroke-width="2"/><text x="276.0" y="348.0" text-anchor="middle" dominant-baseline="middle" fill="white" font-family="sans-serif" font-size="9">Atrium</text><rect x="384" y="312" width="72" height="72" fill="#59656a" stroke="#d7e8df" stroke-width="2"/><text x="420.0" y="348.0" text-anchor="middle" dominant-baseline="middle" fill="white" font-family="sans-serif" font-size="9">Service</text><rect x="456" y="312" width="72" height="72" fill="#59656a" stroke="#d7e8df" stroke-width="2"/><text x="492.0" y="348.0" text-anchor="middle" dominant-baseline="middle" fill="white" font-family="sans-serif" font-size="9">Control</text><rect x="528" y="312" width="72" height="72" fill="#59656a" stroke="#d7e8df" stroke-width="2"/><text x="564.0" y="348.0" text-anchor="middle" dominant-baseline="middle" fill="white" font-family="sans-serif" font-size="9">Courtyard</text><rect x="600" y="312" width="72" height="72" fill="#59656a" stroke="#d7e8df" stroke-width="2"/><text x="636.0" y="348.0" text-anchor="middle" dominant-baseline="middle" fill="white" font-family="sans-serif" font-size="9">Courtyard</text><rect x="672" y="312" width="72" height="72" fill="#59656a" stroke="#d7e8df" stroke-width="2"/><text x="708.0" y="348.0" text-anchor="middle" dominant-baseline="middle" fill="white" font-family="sans-serif" font-size="9">Courtyard</text><rect x="24" y="240" width="72" height="72" fill="#59656a" stroke="#d7e8df" stroke-width="2"/><text x="60.0" y="276.0" text-anchor="middle" dominant-baseline="middle" fill="white" font-family="sans-serif" font-size="9">Arrival</text><rect x="96" y="240" width="72" height="72" fill="#59656a" stroke="#d7e8df" stroke-width="2"/><text x="132.0" y="276.0" text-anchor="middle" dominant-baseline="middle" fill="white" font-family="sans-serif" font-size="9">Security</text><rect x="168" y="240" width="72" height="72" fill="#59656a" stroke="#d7e8df" stroke-width="2"/><text x="204.0" y="276.0" text-anchor="middle" dominant-baseline="middle" fill="white" font-family="sans-serif" font-size="9">Atrium</text><rect x="240" y="240" width="72" height="72" fill="#59656a" stroke="#d7e8df" stroke-width="2"/><text x="276.0" y="276.0" text-anchor="middle" dominant-baseline="middle" fill="white" font-family="sans-serif" font-size="9">Atrium</text><rect x="312" y="240" width="72" height="72" fill="#59656a" stroke="#d7e8df" stroke-width="2"/><text x="348.0" y="276.0" text-anchor="middle" dominant-baseline="middle" fill="white" font-family="sans-serif" font-size="9">Control</text><rect x="384" y="240" width="72" height="72" fill="#59656a" stroke="#d7e8df" stroke-width="2"/><text x="420.0" y="276.0" text-anchor="middle" dominant-baseline="middle" fill="white" font-family="sans-serif" font-size="9">Control</text><rect x="456" y="240" width="72" height="72" fill="#59656a" stroke="#d7e8df" stroke-width="2"/><text x="492.0" y="276.0" text-anchor="middle" dominant-baseline="middle" fill="white" font-family="sans-serif" font-size="9">Control</text><rect x="528" y="240" width="72" height="72" fill="#59656a" stroke="#d7e8df" stroke-width="2"/><text x="564.0" y="276.0" text-anchor="middle" dominant-baseline="middle" fill="white" font-family="sans-serif" font-size="9">Courtyard</text><rect x="600" y="240" width="72" height="72" fill="#59656a" stroke="#d7e8df" stroke-width="2"/><text x="636.0" y="276.0" text-anchor="middle" dominant-baseline="middle" fill="white" font-family="sans-serif" font-size="9">Courtyard</text><rect x="672" y="240" width="72" height="72" fill="#59656a" stroke="#d7e8df" stroke-width="2"/><text x="708.0" y="276.0" text-anchor="middle" dominant-baseline="middle" fill="white" font-family="sans-serif" font-size="9">Courtyard</text><rect x="168" y="168" width="72" height="72" fill="#59656a" stroke="#d7e8df" stroke-width="2"/><text x="204.0" y="204.0" text-anchor="middle" dominant-baseline="middle" fill="white" font-family="sans-serif" font-size="9">Atrium</text><rect x="240" y="168" width="72" height="72" fill="#59656a" stroke="#d7e8df" stroke-width="2"/><text x="276.0" y="204.0" text-anchor="middle" dominant-baseline="middle" fill="white" font-family="sans-serif" font-size="9">Atrium</text><rect x="456" y="168" width="72" height="72" fill="#59656a" stroke="#d7e8df" stroke-width="2"/><text x="492.0" y="204.0" text-anchor="middle" dominant-baseline="middle" fill="white" font-family="sans-serif" font-size="9">Reactor</text><rect x="528" y="168" width="72" height="72" fill="#59656a" stroke="#d7e8df" stroke-width="2"/><text x="564.0" y="204.0" text-anchor="middle" dominant-baseline="middle" fill="white" font-family="sans-serif" font-size="9">Reactor</text><rect x="600" y="168" width="72" height="72" fill="#59656a" stroke="#d7e8df" stroke-width="2"/><text x="636.0" y="204.0" text-anchor="middle" dominant-baseline="middle" fill="white" font-family="sans-serif" font-size="9">Courtyard</text><rect x="672" y="168" width="72" height="72" fill="#59656a" stroke="#d7e8df" stroke-width="2"/><text x="708.0" y="204.0" text-anchor="middle" dominant-baseline="middle" fill="white" font-family="sans-serif" font-size="9">Courtyard</text><rect x="744" y="168" width="72" height="72" fill="#59656a" stroke="#d7e8df" stroke-width="2"/><text x="780.0" y="204.0" text-anchor="middle" dominant-baseline="middle" fill="white" font-family="sans-serif" font-size="9">Exit</text><rect x="240" y="96" width="72" height="72" fill="#59656a" stroke="#d7e8df" stroke-width="2"/><text x="276.0" y="132.0" text-anchor="middle" dominant-baseline="middle" fill="white" font-family="sans-serif" font-size="9">Laboratory</text><rect x="312" y="96" width="72" height="72" fill="#59656a" stroke="#d7e8df" stroke-width="2"/><text x="348.0" y="132.0" text-anchor="middle" dominant-baseline="middle" fill="white" font-family="sans-serif" font-size="9">Laboratory</text><rect x="384" y="96" width="72" height="72" fill="#59656a" stroke="#d7e8df" stroke-width="2"/><text x="420.0" y="132.0" text-anchor="middle" dominant-baseline="middle" fill="white" font-family="sans-serif" font-size="9">Laboratory</text><rect x="456" y="96" width="72" height="72" fill="#59656a" stroke="#d7e8df" stroke-width="2"/><text x="492.0" y="132.0" text-anchor="middle" dominant-baseline="middle" fill="white" font-family="sans-serif" font-size="9">Reactor</text><rect x="528" y="96" width="72" height="72" fill="#59656a" stroke="#d7e8df" stroke-width="2"/><text x="564.0" y="132.0" text-anchor="middle" dominant-baseline="middle" fill="white" font-family="sans-serif" font-size="9">Reactor</text><rect x="672" y="96" width="72" height="72" fill="#59656a" stroke="#d7e8df" stroke-width="2"/><text x="708.0" y="132.0" text-anchor="middle" dominant-baseline="middle" fill="white" font-family="sans-serif" font-size="9">Exit</text><rect x="744" y="96" width="72" height="72" fill="#59656a" stroke="#d7e8df" stroke-width="2"/><text x="780.0" y="132.0" text-anchor="middle" dominant-baseline="middle" fill="white" font-family="sans-serif" font-size="9">Exit</text><rect x="384" y="24" width="72" height="72" fill="#59656a" stroke="#d7e8df" stroke-width="2"/><text x="420.0" y="60.0" text-anchor="middle" dominant-baseline="middle" fill="white" font-family="sans-serif" font-size="9">Laboratory</text><rect x="456" y="24" width="72" height="72" fill="#59656a" stroke="#d7e8df" stroke-width="2"/><text x="492.0" y="60.0" text-anchor="middle" dominant-baseline="middle" fill="white" font-family="sans-serif" font-size="9">Laboratory</text></svg>
